<?xml version="1.0" encoding="UTF-8" standalone="no"?>
<!-- Created with Inkscape (http://www.inkscape.org/) -->

<svg
   version="1.1"
   id="svg2"
   width="720"
   height="720"
   viewBox="0 0 720 720"
   sodipodi:docname="mylogogrey.svg"
   inkscape:version="1.2 (dc2aedaf03, 2022-05-15)"
   xmlns:inkscape="http://www.inkscape.org/namespaces/inkscape"
   xmlns:sodipodi="http://sodipodi.sourceforge.net/DTD/sodipodi-0.dtd"
   xmlns="http://www.w3.org/2000/svg"
   xmlns:svg="http://www.w3.org/2000/svg">
  <defs
     id="defs6" />
  <sodipodi:namedview
     id="namedview4"
     pagecolor="#ffffff"
     bordercolor="#000000"
     borderopacity="0.25"
     inkscape:showpageshadow="2"
     inkscape:pageopacity="0.0"
     inkscape:pagecheckerboard="0"
     inkscape:deskcolor="#d1d1d1"
     showgrid="false"
     inkscape:zoom="0.86129534"
     inkscape:cx="232.20839"
     inkscape:cy="445.8401"
     inkscape:window-width="1920"
     inkscape:window-height="1057"
     inkscape:window-x="-8"
     inkscape:window-y="-8"
     inkscape:window-maximized="1"
     inkscape:current-layer="g8" />
  <g
     inkscape:groupmode="layer"
     inkscape:label="Image"
     id="g8">
    <path
       style="fill:#1a1a1a"
       d="M 1.1610423,361.16104 V 1.1610416 h 359.9999977 360 v 359.9999984 360 h -360 H 1.1610423 Z m 143.3999977,228.25 c -0.055,-0.6875 -0.1675,-15.82315 -0.25,-33.63478 l -0.15,-32.38477 -5.75,-0.68069 c -11.21761,-1.32795 -23.94249,-6.82427 -33.97853,-14.67652 -3.4257,-2.68028 -6.586978,-4.87324 -7.025078,-4.87324 -0.4381,0 -3.53745,2.8125 -6.88745,6.25 -3.35,3.4375 -14.25121,14.32738 -24.22492,24.19972 -9.97371,9.87235 -18.13402,18.21937 -18.13402,18.54894 0,0.32956 4.54057,5.39381 10.09015,11.25388 10.73767,11.33842 16.08129,15.34638 24.90985,18.68353 3.025,1.14344 6.22262,2.48889 7.10581,2.98988 1.69695,0.9626 19.959338,4.77775 25.894188,5.40949 1.925,0.20491 9.125,0.32576 16,0.26856 9.33608,-0.0777 12.47469,-0.42039 12.4,-1.354 z M 562.8683,503.36831 c -48.28366,-48.286 -87.4327,-88.18314 -86.99787,-88.66032 0.43484,-0.47718 0.31007,-0.59455 -0.27725,-0.26083 -0.58732,0.33373 -6.87603,-5.21431 -13.9749,-12.32897 l -12.90704,-12.93576 31.02894,-31.26069 C 584.84916,252.02768 620.71095,215.82079 635.00674,201.16104 l 16.09036,-16.5 -46.71803,-0.26318 -46.71803,-0.26319 -17.07787,17.26319 c -9.39283,9.49475 -55.20425,55.94213 -101.80315,103.2164 l -84.72529,85.95321 60.30316,59.47577 c 33.16673,32.71167 78.75315,77.84368 101.30315,100.29335 l 41,40.8176 46.99787,0.003 46.99787,0.003 -87.78848,-87.79273 z m -301.30578,32.1819 c 11.57933,-11.66381 16.58974,-19.71672 18.97821,-30.50245 1.17152,-5.29028 1.51545,-33.42546 2.00338,-163.88672 l 0.58906,-157.5 -33.23607,0.5 -33.23606,0.5 -0.60867,25.5 c -0.33476,14.025 -0.67226,78.63989 -0.75,143.58865 l -0.14133,118.08866 -4.95752,10.1376 c -2.72664,5.57568 -6.85799,12.19938 -9.18079,14.71932 l -4.22328,4.58171 24.38387,24.36552 24.38387,24.36553 2.80155,-1.99488 c 1.54085,-1.09719 7.47805,-6.70551 13.19378,-12.46294 z"
       id="path121" />
    <path
       style="fill:#ffffff;stroke:none;stroke-width:1.16104"
       d="m 220.76084,524.95397 -23.61725,-23.63835 4.27346,-5.59852 c 2.3504,-3.0792 6.27009,-9.56965 8.71043,-14.42325 l 4.43698,-8.82471 0.40441,-142.9644 c 0.22242,-78.63041 0.66564,-143.19888 0.98493,-143.48548 0.31928,-0.28659 15.07903,-0.88098 32.79943,-1.32085 l 32.21892,-0.79977 -0.1122,116.4577 c -0.0617,64.05175 -0.46435,136.57276 -0.89477,161.15783 l -0.78257,44.70011 -3.19041,6.86332 c -3.88932,8.36684 -13.80556,20.69156 -23.48656,29.191 -3.96154,3.47804 -7.41087,6.32371 -7.66518,6.32371 -0.25431,0 -11.09014,-10.63726 -24.07962,-23.63834 z"
       id="path1195" />
    <path
       style="fill:#ffffff;stroke:none;stroke-width:1.16104"
       d="m 107.39638,588.64715 c -22.960938,-4.21357 -32.380868,-8.89245 -47.184056,-23.4363 -6.29671,-6.18639 -11.448563,-11.80806 -11.448563,-12.49258 0,-0.68453 10.681129,-11.91619 23.735843,-24.95926 l 23.735843,-23.71466 6.923013,4.85622 c 3.80766,2.67092 10.208,6.40977 14.22297,8.30855 6.35961,3.00762 10.22831,4.117 22.81438,6.54218 l 2.61235,0.50337 v 32.36283 c 0,28.43963 -0.22264,32.44827 -1.83652,33.06758 -3.14107,1.20534 -25.0401,0.52836 -33.57526,-1.03793 z"
       id="path1197" />
    <path
       style="fill:#ffffff;stroke:none;stroke-width:1.16104"
       d="M 503.31167,538.42683 C 474.57589,509.85119 429.27038,464.83547 402.63277,438.39189 l -48.43203,-48.07924 60.04245,-60.89135 c 33.02334,-33.49026 78.59008,-79.67403 101.25942,-102.63062 l 41.21699,-41.73925 45.75233,0.35764 45.75234,0.35764 -78.75037,79.53137 c -43.31269,43.74225 -88.71851,89.63161 -100.90182,101.97634 l -22.15146,22.44499 13.07149,12.38627 c 7.18932,6.81246 24.94713,24.40307 39.4618,39.09025 14.51468,14.68718 53.81939,54.2642 87.34382,87.94893 l 60.95349,61.24496 -45.84633,-0.003 -45.84633,-0.003 -52.24689,-51.95572 z"
       id="path1199" />
  </g>
</svg>
